<svg width="200" height="200" xmlns="http://www.w3.org/2000/svg">
  <rect width="200" height="200" fill="#ffffff"/>
  <rect x="10" y="10" width="180" height="180" fill="none" stroke="#000000" stroke-width="2"/>
  
  <!-- QR Code Pattern (simplified) -->
  <rect x="20" y="20" width="20" height="20" fill="#000000"/>
  <rect x="50" y="20" width="20" height="20" fill="#000000"/>
  <rect x="80" y="20" width="20" height="20" fill="#000000"/>
  <rect x="110" y="20" width="20" height="20" fill="#000000"/>
  <rect x="140" y="20" width="20" height="20" fill="#000000"/>
  <rect x="170" y="20" width="20" height="20" fill="#000000"/>
  
  <rect x="20" y="50" width="20" height="20" fill="#000000"/>
  <rect x="50" y="50" width="20" height="20" fill="#000000"/>
  <rect x="80" y="50" width="20" height="20" fill="#000000"/>
  <rect x="110" y="50" width="20" height="20" fill="#000000"/>
  <rect x="140" y="50" width="20" height="20" fill="#000000"/>
  <rect x="170" y="50" width="20" height="20" fill="#000000"/>
  
  <rect x="20" y="80" width="20" height="20" fill="#000000"/>
  <rect x="50" y="80" width="20" height="20" fill="#000000"/>
  <rect x="80" y="80" width="20" height="20" fill="#000000"/>
  <rect x="110" y="80" width="20" height="20" fill="#000000"/>
  <rect x="140" y="80" width="20" height="20" fill="#000000"/>
  <rect x="170" y="80" width="20" height="20" fill="#000000"/>
  
  <rect x="20" y="110" width="20" height="20" fill="#000000"/>
  <rect x="50" y="110" width="20" height="20" fill="#000000"/>
  <rect x="80" y="110" width="20" height="20" fill="#000000"/>
  <rect x="110" y="110" width="20" height="20" fill="#000000"/>
  <rect x="140" y="110" width="20" height="20" fill="#000000"/>
  <rect x="170" y="110" width="20" height="20" fill="#000000"/>
  
  <rect x="20" y="140" width="20" height="20" fill="#000000"/>
  <rect x="50" y="140" width="20" height="20" fill="#000000"/>
  <rect x="80" y="140" width="20" height="20" fill="#000000"/>
  <rect x="110" y="140" width="20" height="20" fill="#000000"/>
  <rect x="140" y="140" width="20" height="20" fill="#000000"/>
  <rect x="170" y="140" width="20" height="20" fill="#000000"/>
  
  <rect x="20" y="170" width="20" height="20" fill="#000000"/>
  <rect x="50" y="170" width="20" height="20" fill="#000000"/>
  <rect x="80" y="170" width="20" height="20" fill="#000000"/>
  <rect x="110" y="170" width="20" height="20" fill="#000000"/>
  <rect x="140" y="170" width="20" height="20" fill="#000000"/>
  <rect x="170" y="170" width="20" height="20" fill="#000000"/>
  
  <!-- Bank Info -->
  <text x="100" y="100" font-family="Arial" font-size="12" fill="#000000" text-anchor="middle" dy=".3em">QR Code</text>
  <text x="100" y="115" font-family="Arial" font-size="10" fill="#000000" text-anchor="middle" dy=".3em">Placeholder</text>
  <text x="100" y="130" font-family="Arial" font-size="10" fill="#000000" text-anchor="middle" dy=".3em">123-4-56789-0</text>
</svg>
