<?xml version="1.0" standalone="no"?>
<!DOCTYPE svg PUBLIC "-//W3C//DTD SVG 20010904//EN"
 "http://www.w3.org/TR/2001/REC-SVG-20010904/DTD/svg10.dtd">
<svg version="1.0" xmlns="http://www.w3.org/2000/svg"
 width="2161.000000pt" height="2146.000000pt" viewBox="0 0 2161.000000 2146.000000"
 preserveAspectRatio="xMidYMid meet">

<g transform="translate(0.000000,2146.000000) scale(0.100000,-0.100000)"
fill="#000000" stroke="none">
<path d="M8312 14633 c-489 -357 -885 -683 -1227 -1013 -71 -69 -303 -276
-514 -460 -211 -184 -499 -435 -639 -558 -140 -122 -281 -238 -313 -258 -81
-49 -160 -74 -255 -81 -176 -13 -317 58 -469 237 -95 112 -157 203 -314 465
-195 324 -251 432 -395 750 -70 154 -139 305 -155 335 -27 54 -29 55 -67 52
-21 -2 -42 -7 -47 -11 -10 -9 174 -554 253 -751 119 -296 321 -687 452 -877
167 -242 331 -365 535 -400 146 -25 314 7 481 91 97 49 168 105 335 265 81 77
149 141 152 141 2 0 -35 -53 -82 -117 -695 -951 -1128 -2071 -1259 -3253 -21
-194 -30 -776 -15 -989 33 -466 112 -873 246 -1276 133 -401 231 -571 460
-801 120 -121 218 -191 316 -228 140 -52 433 -77 679 -57 162 14 194 24 198
62 3 22 -19 46 -145 162 -292 269 -460 495 -604 817 -231 516 -341 1086 -356
1835 -11 559 27 869 177 1460 239 944 541 1714 922 2350 359 599 596 876 1466
1717 210 204 382 375 382 380 0 14 -60 98 -70 98 -4 0 -62 -39 -128 -87z"/>
<path d="M15045 14216 c-27 -13 -90 -56 -140 -95 -253 -201 -574 -285 -997
-260 -167 9 -227 17 -623 84 -399 67 -524 79 -763 72 -364 -10 -706 -99 -1032
-269 -287 -149 -610 -407 -610 -488 0 -38 23 -85 47 -95 10 -4 101 -35 203
-70 340 -115 574 -223 786 -364 272 -181 452 -381 541 -602 92 -228 112 -544
57 -889 -71 -446 -288 -1206 -612 -2145 -311 -903 -394 -1203 -447 -1617 -98
-773 123 -1393 562 -1571 150 -61 302 -81 553 -72 228 8 284 17 323 57 26 25
29 34 24 69 -11 83 -50 114 -178 140 -285 59 -495 302 -566 655 -21 110 -24
396 -4 529 68 461 248 1117 688 2500 208 655 326 1049 358 1190 88 394 83 694
-15 1005 -143 449 -582 901 -1155 1190 -156 78 -193 103 -201 136 -10 39 21
73 99 109 183 84 510 97 847 34 142 -27 215 -47 495 -139 379 -124 531 -157
760 -167 236 -10 404 24 600 122 123 61 216 127 310 221 159 159 273 361 313
554 15 72 15 77 -5 121 -35 79 -122 101 -218 55z"/>
<path d="M10780 12095 c-337 -91 -777 -311 -1139 -569 -153 -109 -358 -274
-511 -411 l-125 -112 -120 59 c-218 105 -498 183 -749 207 -216 21 -413 9
-621 -38 -146 -33 -508 -130 -531 -142 -24 -12 -44 -49 -44 -79 0 -40 36 -50
180 -50 584 -1 991 -73 1270 -227 84 -47 200 -126 200 -137 0 -4 -47 -58 -103
-120 -277 -298 -410 -465 -533 -666 -273 -449 -448 -963 -525 -1535 -31 -228
-34 -709 -6 -935 99 -800 327 -1253 721 -1436 121 -56 207 -75 352 -81 149 -6
248 9 374 58 273 105 594 381 794 683 223 334 414 866 491 1364 74 478 61
1079 -31 1491 -93 413 -300 815 -588 1141 -36 41 -66 78 -66 82 0 9 163 130
290 215 311 207 668 376 1051 497 273 86 416 180 484 320 40 83 46 191 15 264
-27 62 -83 115 -159 150 -48 23 -72 27 -166 29 -92 3 -125 -1 -205 -22z
m-1766 -2043 c191 -380 322 -845 372 -1315 21 -196 15 -669 -10 -857 -54 -400
-163 -783 -325 -1138 -162 -357 -300 -547 -448 -618 -86 -41 -200 -46 -276
-11 -121 55 -201 189 -261 437 -165 679 -148 1405 49 2085 132 457 358 909
638 1275 77 102 199 250 204 250 2 0 27 -48 57 -108z"/>
<path d="M15055 11424 c-16 -2 -65 -9 -108 -15 -474 -64 -781 -364 -887 -867
-27 -125 -37 -354 -21 -487 38 -325 181 -622 366 -762 150 -113 302 -160 681
-208 175 -22 275 -42 223 -44 -21 -1 -340 -155 -459 -221 -240 -134 -444 -285
-618 -454 -182 -177 -285 -316 -372 -499 -329 -692 -47 -1554 617 -1887 215
-107 488 -159 776 -146 468 20 1038 190 1293 385 105 81 479 449 540 533 249
341 479 857 608 1365 109 432 159 764 251 1693 107 1083 96 1019 209 1234 47
89 56 116 54 149 -3 35 -7 42 -31 48 -52 14 -496 -7 -557 -26 -155 -48 -245
-154 -305 -361 -46 -159 -95 -593 -165 -1454 -22 -272 -47 -565 -55 -650 -8
-85 -15 -194 -15 -241 0 -112 -24 -365 -50 -511 -61 -361 -149 -637 -300 -943
-143 -291 -314 -532 -504 -712 -313 -296 -627 -368 -932 -215 -269 135 -444
391 -500 731 -24 151 -15 431 20 596 56 264 137 455 290 685 247 371 544 705
696 784 156 81 196 125 168 182 -20 41 -54 61 -153 88 -198 56 -413 192 -538
341 -325 387 -355 990 -70 1417 48 72 100 124 202 201 70 54 94 95 95 169 1
39 -4 52 -27 75 l-27 28 -183 1 c-100 1 -195 0 -212 -2z"/>
<path d="M3920 3634 c117 -118 384 -358 566 -510 1544 -1286 3448 -2076 5444
-2258 588 -54 1232 -54 1820 0 1996 182 3900 972 5444 2258 182 152 449 392
566 510 l95 96 -7015 0 -7015 0 95 -96z"/>
</g>
</svg>
